<svg width="1132" height="235" viewBox="0 0 1132 235" fill="none" xmlns="http://www.w3.org/2000/svg">
<path d="M217.68 22.2164H181.317V205.049H122.249V100.385H93.9494V52.0028C100.037 51.18 105.631 48.0532 109.58 43.2808C113.694 38.5084 115.833 32.4195 115.833 26.166C115.833 19.2542 113.035 12.507 108.264 7.57002C105.96 5.2661 102.999 3.29131 100.037 1.97478C96.911 0.658255 93.4558 -0.164574 90.0006 -8.27201e-06C75.5215 -8.27201e-06 63.8395 11.6842 63.8395 26.166V26.3305C63.8395 32.584 65.9785 38.673 70.2564 43.4454C74.5343 48.3823 79.6349 51.18 85.7227 52.1674V100.385H51.993C51.0058 94.2962 47.8797 88.701 43.1081 84.7514C38.3366 80.6372 32.2488 78.4979 25.9965 78.4979C22.5413 78.4979 19.086 79.1562 15.9599 80.4727C12.8337 81.7892 10.0366 83.764 7.73314 86.0679C2.79709 91.0049 0.164536 97.7521 0.164536 104.664C0.164536 108.12 0.822675 111.576 2.13895 114.702C4.77151 120.956 9.70756 125.893 15.9599 128.526C19.086 129.842 22.5413 130.665 25.9965 130.501C38.8302 130.336 49.6895 121.12 51.993 108.613H85.5581V212.948H187.405C201.062 199.783 211.098 189.58 217.68 182.668V22.2164ZM102.505 38.8375C99.2145 42.2934 94.6076 44.1036 89.836 44.1036C85.0645 44.1036 80.4576 42.2934 77.1669 38.8375C70.2564 32.0903 70.0919 21.0644 76.6733 13.9881C76.8378 13.8235 77.0023 13.659 77.1669 13.4944C80.4576 10.0385 85.0645 8.22828 89.836 8.22828C99.7081 8.22828 107.606 16.1274 107.606 26.0014C107.606 30.9384 105.796 35.5462 102.505 38.8375ZM38.6657 117.171C35.375 120.627 30.768 122.437 25.9965 122.437C21.225 122.437 17.1116 120.627 13.4919 117.171C9.87209 113.55 8.22674 109.436 8.22674 104.664C8.22674 94.7899 16.1244 86.8907 25.9965 86.8907C30.768 86.8907 35.375 88.701 38.6657 92.1569C45.5762 98.9041 45.7407 109.93 39.1593 117.006C38.9948 117.006 38.8302 117.171 38.6657 117.171ZM413.641 68.9531V22.2164H279.709C278.722 16.1274 275.596 10.5322 270.989 6.41806C266.217 2.13935 260.13 -8.27201e-06 253.877 -8.27201e-06C250.422 -8.27201e-06 246.967 0.658255 243.676 1.97478C240.55 3.29131 237.753 5.10153 235.449 7.57002C233.146 10.0385 231.336 12.8361 230.02 15.9629C227.223 22.5455 227.223 29.7864 230.02 36.369C231.336 39.4958 233.146 42.2934 235.449 44.7619C237.753 47.2304 240.55 49.0406 243.676 50.3571C246.967 51.6737 250.422 52.3319 253.877 52.3319C260.13 52.4965 266.382 50.1926 270.989 45.9139C275.76 41.7997 278.887 36.2045 279.709 30.1155H311.958V204.72H279.709C278.722 198.631 275.596 193.036 270.989 188.922C266.217 184.643 260.13 182.503 253.877 182.503C250.422 182.503 246.967 183.162 243.676 184.478C240.55 185.795 237.753 187.605 235.449 190.074C233.146 192.542 231.336 195.34 230.02 198.466C228.703 201.758 228.045 205.214 228.045 208.669C228.045 212.125 228.703 215.581 230.02 218.708C231.336 221.835 233.146 224.632 235.449 226.936C237.753 229.405 240.55 231.215 243.676 232.532C246.967 233.848 250.422 234.506 253.877 234.506C266.711 234.671 277.735 225.291 279.874 212.619H378.43V204.391H348.649V30.2801H378.924L399.82 68.9531H413.641ZM266.382 38.8375C259.471 45.7493 248.119 45.7493 241.208 38.8375C234.298 31.9258 234.298 20.5707 241.208 13.659C248.119 6.74719 259.471 6.74719 266.382 13.659C269.673 16.9503 271.647 21.5581 271.647 26.3305C271.647 30.9384 269.837 35.5462 266.382 38.8375ZM266.382 221.67C259.471 228.582 248.119 228.582 241.208 221.67C237.917 218.379 235.943 213.771 235.943 208.999C235.943 204.226 237.753 199.618 241.208 196.327C247.954 189.415 258.978 189.251 266.053 195.833C266.217 195.998 266.382 196.162 266.546 196.327C270.002 199.618 271.812 204.226 271.812 208.999C271.647 213.771 269.837 218.379 266.382 221.67ZM636.585 213.113V100.385H515.652V52.0028C521.082 51.18 526.183 48.7115 530.131 44.7619C534.08 40.9769 536.713 35.8753 537.535 30.4447H600.223V69.1176H636.585V22.2164H537.535C536.548 16.1274 533.422 10.3676 528.651 6.41806C524.044 2.13935 517.956 -8.27201e-06 511.703 -8.27201e-06C508.248 -8.27201e-06 504.793 0.658255 501.667 1.97478C498.541 3.29131 495.744 5.2661 493.44 7.57002C488.504 12.507 485.871 19.2542 485.871 26.166C485.871 32.4195 488.01 38.5084 492.124 43.2808C496.073 48.0532 501.667 51.18 507.755 52.0028V100.385H475.999C473.86 87.8781 463.001 78.6625 450.332 78.4979C435.853 78.4979 424.171 90.1821 424.171 104.664V104.828C424.171 108.284 424.829 111.74 426.145 114.867C427.462 117.994 429.436 120.791 431.74 123.095C436.676 128.032 443.422 130.665 450.332 130.665C456.584 130.665 462.508 128.361 467.114 124.247C471.886 120.298 475.012 114.867 475.999 108.778H600.552V205.049H544.61V166.047H507.919V213.113H636.585ZM524.373 38.8375C521.082 42.2934 516.475 44.1036 511.703 44.1036C501.831 44.1036 493.934 36.2045 493.934 26.3305C493.934 16.4566 501.831 8.39285 511.703 8.39285C516.475 8.39285 521.082 10.2031 524.373 13.659C531.283 20.4062 531.448 31.4321 524.866 38.5084C524.702 38.5084 524.537 38.673 524.373 38.8375ZM462.672 117.171C455.762 124.247 444.573 124.247 437.498 117.335C434.043 114.044 432.233 109.436 432.233 104.664C432.233 94.7899 440.131 86.7262 450.003 86.7262C459.875 86.7262 467.937 94.6253 467.937 104.499C467.937 109.107 465.963 113.715 462.672 117.171ZM870.06 213.113V22.2164H768.049C767.062 16.1274 763.935 10.5322 759.328 6.41806C751.76 -8.16584e-06 741.23 -1.81023 732.016 2.13935C728.89 3.45587 726.092 5.43066 723.789 7.73458C718.853 12.6716 716.22 19.4188 716.22 26.3305C716.22 32.584 718.359 38.673 722.637 43.4454C726.915 48.3823 732.016 51.18 738.103 52.1674V100.385H698.944C696.805 87.8781 685.946 78.6625 673.277 78.4979C658.798 78.4979 647.116 90.1821 647.116 104.664V104.828C647.116 108.284 647.774 111.74 649.09 114.867C650.406 117.994 652.381 120.791 654.684 123.095C659.62 128.032 666.366 130.665 673.277 130.665C679.529 130.665 685.452 128.361 690.059 124.247C694.831 120.298 697.957 114.867 698.944 108.778H738.103V213.113H774.795V108.778H833.534V213.113H870.06ZM833.369 100.385H746.33V52.0028C751.76 51.18 756.696 48.5469 760.645 44.7619C764.594 40.9769 767.226 35.8753 768.049 30.4447H833.534V100.385H833.369ZM754.721 38.8375C751.431 42.2934 746.824 44.1036 742.052 44.1036C732.18 44.1036 724.283 36.2045 724.283 26.3305C724.283 16.4566 732.18 8.39285 742.052 8.39285C746.824 8.39285 751.431 10.2031 754.721 13.659C761.632 20.4062 761.796 31.4321 755.215 38.5084C755.051 38.5084 754.886 38.673 754.721 38.8375ZM685.617 117.171C678.706 124.083 667.353 124.083 660.443 117.171C653.533 110.259 653.533 98.9041 660.443 91.9923C667.353 85.0805 678.706 85.0805 685.617 91.9923C688.908 95.2836 690.882 99.8914 690.882 104.664C690.882 109.436 689.072 113.88 685.617 117.171ZM1117.69 2.79761C1114.07 0.987387 1110.12 -8.27201e-06 1106 -8.27201e-06C1095.31 -8.27201e-06 1087.58 4.7724 1082.64 14.3172C1080.67 18.1022 1079.51 22.2164 1079.51 26.4951C1079.51 35.5462 1083.3 42.458 1090.7 47.5595L1041.01 165.389L981.944 22.0518H926.661V30.2801H944.759L975.198 100.385H932.255C931.432 94.2962 928.47 88.701 923.699 84.7514C918.927 80.6372 912.84 78.3333 906.587 78.4979C892.108 78.4979 880.426 90.1821 880.426 104.664V104.828C880.426 108.284 881.084 111.74 882.401 114.867C883.717 117.994 885.691 120.791 887.995 123.095C892.931 128.032 899.677 130.665 906.587 130.665C912.84 130.83 919.092 128.526 923.699 124.247C928.306 120.298 931.432 114.702 932.255 108.778H978.818L1023.9 213.113H1029.99L1098.27 51.18C1100.9 52.0028 1103.54 52.3319 1106.17 52.4965C1116.7 52.4965 1124.43 47.7241 1129.37 38.1793C1131.18 34.3943 1132.16 30.2801 1132.16 26.166C1132 15.4692 1127.23 7.73459 1117.69 2.79761ZM1121.8 34.3942C1118.34 40.8123 1113.08 44.1036 1106 44.1036C1103.21 44.1036 1100.41 43.4454 1097.78 42.1288C1091.2 38.8375 1087.9 33.5714 1087.9 26.166C1087.9 23.3683 1088.73 20.7353 1089.88 18.2668C1093.33 11.8487 1098.6 8.55741 1105.84 8.55741C1108.64 8.55741 1111.27 9.05111 1113.74 10.3676C1120.15 13.8235 1123.44 19.0896 1123.44 26.3305C1123.61 28.9636 1122.95 31.7612 1121.8 34.3942ZM919.092 117.171C912.181 124.083 900.828 124.083 893.918 117.171C887.008 110.259 887.008 98.9041 893.918 91.9923C900.828 85.0805 912.181 85.0805 919.092 91.9923C922.383 95.2836 924.357 99.8914 924.357 104.664C924.357 109.436 922.383 113.88 919.092 117.171Z" fill="#FFFFFE"/>
<path d="M454.281 22.381H363.293V30.2801H454.281V22.381Z" fill="#FFFFFE"/>
<path d="M454.281 22.381H446.383V86.8908H454.281V22.381Z" fill="#FFFFFE"/>
<path d="M649.419 99.8915H596.768V107.791H649.419V99.8915Z" fill="#FFFFFE"/>
<path d="M234.791 205.049H182.14V212.948H234.791V205.049Z" fill="#FFFFFE"/>
<path d="M888.159 99.8915H835.508V107.791H888.159V99.8915Z" fill="#FFFFFE"/>
<path d="M599.73 30.7738L626.384 69.7759L598.742 72.0798L599.73 30.7738Z" fill="#262726"/>
<path d="M544.775 205.707L517.133 166.047L544.775 163.743V205.707Z" fill="#262726"/>
</svg>
